<?xml version="1.0" encoding="UTF-8" standalone="no"?>
<!DOCTYPE svg PUBLIC "-//W3C//DTD SVG 1.1//EN" "http://www.w3.org/Graphics/SVG/1.1/DTD/svg11.dtd">
<svg width="100%" height="100%" viewBox="0 0 7505 2076" version="1.1" xmlns="http://www.w3.org/2000/svg" xmlns:xlink="http://www.w3.org/1999/xlink" xml:space="preserve" xmlns:serif="http://www.serif.com/" style="fill-rule:evenodd;clip-rule:evenodd;stroke-linejoin:round;stroke-miterlimit:2;">
    <g transform="matrix(4.16667,0,0,4.16667,-13756.3,-3229.16)">
        <g transform="matrix(0.6853,0,0,0.263632,1334.11,753.361)">
            <g transform="matrix(1.45921,0,0,3.79316,2044.45,-2833.58)">
                <g>
                    <g transform="matrix(1,0,0,1,829.048,197.016)">
                        <g transform="matrix(392,0,0,392,338.26,974.688)">
                            <path d="M0.171,-0.443L0.715,-0.443L0.715,-0.268L0.171,-0.268L0.171,-0.443ZM0.734,-0.75L0.734,-0.575L0.178,-0.575L0.277,-0.674L0.277,-0L0.07,-0L0.07,-0.75L0.734,-0.75Z" style="fill:rgb(126,148,88);fill-rule:nonzero;"/>
                        </g>
                        <g transform="matrix(392,0,0,392,628.34,974.688)">
                            <rect x="0.056" y="-0.77" width="0.204" height="0.77" style="fill:rgb(126,148,88);fill-rule:nonzero;"/>
                        </g>
                        <g transform="matrix(392,0,0,392,733.396,974.688)">
                            <path d="M0.396,0.016C0.323,0.016 0.259,0.004 0.204,-0.021C0.149,-0.047 0.106,-0.082 0.076,-0.127C0.045,-0.173 0.03,-0.226 0.03,-0.285C0.03,-0.346 0.045,-0.399 0.076,-0.444C0.106,-0.49 0.149,-0.525 0.204,-0.55C0.259,-0.575 0.323,-0.588 0.396,-0.588C0.469,-0.588 0.533,-0.575 0.588,-0.55C0.643,-0.525 0.685,-0.49 0.716,-0.444C0.746,-0.399 0.762,-0.346 0.762,-0.285C0.762,-0.226 0.746,-0.173 0.716,-0.127C0.685,-0.082 0.643,-0.047 0.588,-0.021C0.533,0.004 0.469,0.016 0.396,0.016ZM0.396,-0.135C0.429,-0.135 0.458,-0.141 0.482,-0.153C0.505,-0.165 0.524,-0.183 0.536,-0.205C0.549,-0.228 0.555,-0.254 0.555,-0.285C0.555,-0.317 0.549,-0.344 0.536,-0.366C0.524,-0.389 0.505,-0.406 0.482,-0.418C0.458,-0.43 0.429,-0.436 0.396,-0.436C0.363,-0.436 0.334,-0.43 0.31,-0.418C0.286,-0.406 0.268,-0.389 0.255,-0.366C0.243,-0.344 0.236,-0.317 0.236,-0.286C0.236,-0.254 0.243,-0.227 0.255,-0.205C0.268,-0.183 0.286,-0.165 0.31,-0.153C0.334,-0.141 0.363,-0.135 0.396,-0.135Z" style="fill:rgb(126,148,88);fill-rule:nonzero;"/>
                        </g>
                        <g transform="matrix(392,0,0,392,1032.88,974.688)">
                            <path d="M0.029,-0.571L0.237,-0.571L0.271,-0.367L0.271,-0L0.067,-0L0.067,-0.379L0.029,-0.571ZM0.539,-0.58L0.539,-0.406C0.519,-0.41 0.501,-0.413 0.483,-0.414C0.465,-0.416 0.449,-0.417 0.434,-0.417C0.405,-0.417 0.377,-0.411 0.353,-0.399C0.328,-0.388 0.308,-0.368 0.293,-0.342C0.279,-0.315 0.271,-0.279 0.271,-0.235L0.232,-0.283C0.237,-0.324 0.245,-0.363 0.256,-0.4C0.266,-0.436 0.281,-0.469 0.299,-0.497C0.317,-0.525 0.34,-0.547 0.368,-0.563C0.395,-0.58 0.429,-0.588 0.468,-0.588C0.479,-0.588 0.491,-0.587 0.503,-0.586C0.515,-0.585 0.527,-0.583 0.539,-0.58Z" style="fill:rgb(126,148,88);fill-rule:nonzero;"/>
                        </g>
                        <g transform="matrix(392,0,0,392,1231.24,974.688)">
                            <path d="M0.572,-0L0.546,-0.206L0.573,-0.285L0.546,-0.364L0.572,-0.571L0.784,-0.571L0.748,-0.286L0.784,-0L0.572,-0ZM0.62,-0.285C0.611,-0.225 0.592,-0.172 0.565,-0.127C0.537,-0.081 0.502,-0.046 0.46,-0.021C0.417,0.004 0.369,0.016 0.315,0.016C0.259,0.016 0.21,0.004 0.168,-0.021C0.125,-0.047 0.092,-0.082 0.068,-0.127C0.044,-0.173 0.032,-0.226 0.032,-0.285C0.032,-0.346 0.044,-0.399 0.068,-0.444C0.092,-0.49 0.125,-0.525 0.168,-0.55C0.21,-0.575 0.259,-0.588 0.315,-0.588C0.369,-0.588 0.417,-0.575 0.46,-0.551C0.502,-0.526 0.537,-0.491 0.565,-0.446C0.593,-0.4 0.611,-0.347 0.62,-0.285ZM0.239,-0.285C0.239,-0.257 0.245,-0.232 0.256,-0.21C0.268,-0.188 0.284,-0.171 0.305,-0.159C0.326,-0.146 0.349,-0.14 0.376,-0.14C0.404,-0.14 0.43,-0.146 0.455,-0.159C0.479,-0.171 0.501,-0.188 0.52,-0.21C0.539,-0.232 0.553,-0.257 0.562,-0.285C0.553,-0.314 0.539,-0.339 0.52,-0.361C0.501,-0.383 0.479,-0.4 0.455,-0.413C0.43,-0.425 0.404,-0.432 0.376,-0.432C0.349,-0.432 0.326,-0.425 0.305,-0.413C0.284,-0.4 0.268,-0.383 0.256,-0.361C0.245,-0.339 0.239,-0.314 0.239,-0.285Z" style="fill:rgb(126,148,88);fill-rule:nonzero;"/>
                        </g>
                    </g>
                    <g id="Layer1">
                    </g>
                    <g id="flora-lightgreen.svg" transform="matrix(-0.972662,0,0,0.972662,815.349,1017.66)">
                        <g transform="matrix(1,0,0,1,-256,-256)">
                            <g>
                                <path d="M173.51,417.9C154.783,428.712 136.541,439.244 123.135,446.982C203.936,503.685 311.605,503.685 392.405,446.982C375.612,437.287 358.819,427.595 342.026,417.9C289.889,387.798 225.646,387.798 173.506,417.9L173.51,417.9Z" style="fill:rgb(126,148,88);fill-rule:nonzero;"/>
                                <path d="M356.59,42.656L356.59,100.824C356.59,161.031 388.715,216.664 440.856,246.774C459.575,257.583 477.813,268.114 491.215,275.852C499.934,177.52 446.098,84.272 356.595,42.662L356.59,42.656Z" style="fill:rgb(126,148,88);fill-rule:nonzero;"/>
                                <path d="M158.96,100.82L158.96,42.652C69.448,84.265 15.61,177.512 24.33,275.842C41.123,266.147 57.916,256.451 74.705,246.756C126.846,216.651 158.963,161.022 158.963,100.816L158.96,100.82Z" style="fill:rgb(126,148,88);fill-rule:nonzero;"/>
                                <path d="M343.77,234.4C343.77,183.212 343.77,88.23 343.774,37.04C317.825,26.806 292.059,21.548 264.172,20.782C264.172,20.782 254.094,159.252 343.77,298.172L343.77,234.4Z" style="fill:rgb(126,148,88);fill-rule:nonzero;"/>
                                <path d="M171.77,170.95C233.043,119.884 247.313,53.87 250.524,21.24C222.782,22.084 196.27,27.74 171.762,37.416C171.766,81.932 171.766,126.443 171.766,170.956L171.77,170.95Z" style="fill:rgb(126,148,88);fill-rule:nonzero;"/>
                                <path d="M252.36,158.5L197.13,190.383C152.798,215.977 70.54,263.469 26.21,289.063C30.323,316.653 38.651,341.598 51.929,366.129C51.929,366.129 176.889,305.621 252.359,158.499L252.36,158.5Z" style="fill:rgb(126,148,88);fill-rule:nonzero;"/>
                                <path d="M228.19,371.07C153.331,343.535 89.03,364.187 59.15,377.726C73.752,401.328 91.908,421.46 112.541,437.847C151.092,415.585 189.639,393.331 228.191,371.074L228.19,371.07Z" style="fill:rgb(126,148,88);fill-rule:nonzero;"/>
                                <path d="M178.24,307.63L233.467,339.517C277.795,365.111 360.057,412.603 404.387,438.201C426.227,420.846 443.66,401.158 458.27,377.392C458.266,377.396 343.38,299.431 178.24,307.63Z" style="fill:rgb(126,148,88);fill-rule:nonzero;"/>
                                <path d="M374.41,222.29C387.996,300.888 438.031,346.25 464.691,365.35C477.832,340.901 486.187,315.116 490.062,289.053C451.507,266.799 412.96,244.541 374.412,222.283L374.41,222.29Z" style="fill:rgb(126,148,88);fill-rule:nonzero;"/>
                            </g>
                        </g>
                    </g>
                </g>
            </g>
        </g>
    </g>
</svg>
